<?xml version="1.0" standalone="no"?>
<!DOCTYPE svg PUBLIC "-//W3C//DTD SVG 20010904//EN"
 "http://www.w3.org/TR/2001/REC-SVG-20010904/DTD/svg10.dtd">
<svg version="1.0" xmlns="http://www.w3.org/2000/svg"
 width="300.000000pt" height="300.000000pt" viewBox="0 0 300.000000 300.000000"
 preserveAspectRatio="xMidYMid meet">
<metadata>
Created by potrace 1.10, written by Peter Selinger 2001-2011
</metadata>
<g transform="translate(0.000000,300.000000) scale(0.050000,-0.050000)"
fill="#000000" stroke="none">
<path d="M2919 5335 c0 -124 -4 -292 -9 -375 -4 -82 -13 -259 -19 -393 l-12
-243 336 -131 c184 -73 365 -142 401 -155 90 -31 75 -39 -171 -90 -118 -24
-532 -112 -919 -196 -388 -84 -723 -152 -745 -152 -165 0 407 -136 1803 -429
352 -74 364 -81 155 -99 -89 -7 -343 -35 -565 -63 -222 -27 -449 -54 -504 -60
-55 -7 -122 -15 -150 -19 -27 -4 -99 -13 -160 -20 -60 -7 -132 -16 -160 -20
-27 -4 -99 -13 -160 -20 -60 -7 -132 -16 -160 -20 -27 -4 -90 -12 -140 -18
-49 -6 -202 -24 -340 -41 -364 -45 -376 -47 -540 -62 -82 -8 -163 -17 -180
-20 -16 -3 -52 -7 -78 -7 -27 -1 -44 -6 -39 -11 23 -24 2466 -732 2630 -763
107 -20 98 -35 -116 -177 l-201 -134 11 -83 c6 -46 18 -309 25 -584 12 -469
16 -529 36 -508 4 4 13 247 21 538 7 292 17 544 23 560 5 17 162 114 350 217
187 103 338 189 334 192 -3 3 -420 144 -926 313 -506 169 -902 310 -880 313
22 2 261 27 530 55 525 54 650 67 760 80 39 5 120 14 180 20 61 6 142 15 180
20 39 5 120 13 180 20 61 6 133 15 160 20 28 5 109 14 180 20 72 7 144 16 160
20 17 4 89 13 160 20 368 36 1326 165 1300 175 -16 6 -660 135 -1430 286 -770
151 -1402 276 -1405 278 -3 3 308 84 690 181 382 97 711 182 731 189 23 8
-200 91 -612 227 l-648 214 -6 265 c-3 146 -8 297 -11 335 -3 39 -7 180 -7
315 -1 149 -10 245 -22 245 -12 0 -20 -89 -21 -225z"/>
</g>
</svg>
