<?xml version="1.0" encoding="utf-8"?>
<!-- Generator: Adobe Illustrator 26.0.2, SVG Export Plug-In . SVG Version: 6.00 Build 0)  -->
<svg version="1.1"
	 id="svg3476" xmlns:cc="http://creativecommons.org/ns#" xmlns:dc="http://purl.org/dc/elements/1.1/" xmlns:inkscape="http://www.inkscape.org/namespaces/inkscape" xmlns:rdf="http://www.w3.org/1999/02/22-rdf-syntax-ns#" xmlns:sodipodi="http://sodipodi.sourceforge.net/DTD/sodipodi-0.dtd" xmlns:svg="http://www.w3.org/2000/svg"
	 xmlns="http://www.w3.org/2000/svg" xmlns:xlink="http://www.w3.org/1999/xlink" x="0px" y="0px" viewBox="0 0 290.2 409.6"
	 style="enable-background:new 0 0 290.2 409.6;" xml:space="preserve">
<style type="text/css">
	.st0{fill:#264DE4;}
	.st1{fill:#2965F1;}
	.st2{fill:#EBEBEB;}
	.st3{fill:#FFFFFF;}
</style>
<sodipodi:namedview  bordercolor="#666666" borderopacity="1.0" fit-margin-bottom="0" fit-margin-left="0" fit-margin-right="0" fit-margin-top="0" id="base" inkscape:current-layer="layer1" inkscape:cx="181.367" inkscape:cy="256" inkscape:document-units="px" inkscape:pageopacity="0.0" inkscape:pageshadow="2" inkscape:window-height="704" inkscape:window-maximized="1" inkscape:window-width="1366" inkscape:window-x="0" inkscape:window-y="27" inkscape:zoom="0.35" pagecolor="#ffffff" showgrid="false">
	</sodipodi:namedview>
<g id="layer1" transform="translate(-193.633,-276.3622)" inkscape:groupmode="layer" inkscape:label="Calque 1">
	<g id="g3013" transform="translate(119,276.3622)">
		<polygon id="polygon2989" class="st0" points="357.6,48.4 332.5,329.8 219.6,361.2 107,329.9 81.9,48.4 		"/>
		<polygon id="polygon2991" class="st1" points="311,311.9 332.4,71.5 219.7,71.5 219.7,337.2 		"/>
		<polygon id="polygon2993" class="st2" points="139.4,175.8 142.5,210.4 219.7,210.4 219.7,175.8 		"/>
		<polygon id="polygon2995" class="st2" points="219.7,106 219.6,106 133.2,106 136.3,140.5 219.7,140.5 		"/>
		<polygon id="polygon2997" class="st2" points="219.7,301.4 219.7,265.5 219.6,265.5 181.1,255.2 178.7,227.6 160,227.6 144,227.6 
			148.9,281.8 219.6,301.4 		"/>
		<polygon id="polygon3005" class="st3" points="262.1,210.4 258.1,255.1 219.6,265.5 219.6,301.4 290.4,281.8 290.9,276 299,185.1 
			299.8,175.8 306.1,106 219.6,106 219.6,140.5 268.2,140.5 265.1,175.8 219.6,175.8 219.6,210.4 		"/>
	</g>
</g>
</svg>
